<?xml version="1.0" encoding="UTF-8" standalone="no"?>
<svg
   xmlns:dc="http://purl.org/dc/elements/1.1/"
   xmlns:cc="http://creativecommons.org/ns#"
   xmlns:rdf="http://www.w3.org/1999/02/22-rdf-syntax-ns#"
   xmlns:svg="http://www.w3.org/2000/svg"
   xmlns="http://www.w3.org/2000/svg"
   xmlns:sodipodi="http://sodipodi.sourceforge.net/DTD/sodipodi-0.dtd"
   xmlns:inkscape="http://www.inkscape.org/namespaces/inkscape"
   width="210mm"
   height="297mm"
   viewBox="0 0 210 297"
   version="1.1"
   id="svg8"
   inkscape:version="1.0.2 (e86c870879, 2021-01-15, custom)"
   sodipodi:docname="bucket.svg">
  <defs
     id="defs2" />
  <sodipodi:namedview
     id="base"
     pagecolor="#ffffff"
     bordercolor="#666666"
     borderopacity="1.0"
     inkscape:pageopacity="0.0"
     inkscape:pageshadow="2"
     inkscape:zoom="0.24748737"
     inkscape:cx="-546.25291"
     inkscape:cy="602.76296"
     inkscape:document-units="mm"
     inkscape:current-layer="layer1"
     inkscape:document-rotation="0"
     showgrid="false"
     inkscape:window-width="1320"
     inkscape:window-height="768"
     inkscape:window-x="1574"
     inkscape:window-y="1"
     inkscape:window-maximized="0" />
  <metadata
     id="metadata5">
    <rdf:RDF>
      <cc:Work
         rdf:about="">
        <dc:format>image/svg+xml</dc:format>
        <dc:type
           rdf:resource="http://purl.org/dc/dcmitype/StillImage" />
        <dc:title></dc:title>
      </cc:Work>
    </rdf:RDF>
  </metadata>
  <g
     inkscape:label="Layer 1"
     inkscape:groupmode="layer"
     id="layer1">
    <path
       style="fill:#000000;stroke-width:0.517934"
       d="m 105.35174,148.4415 c 0,-0.28486 -1.16535,-0.51793 -2.58968,-0.51793 -1.42431,0 -2.58966,-0.22864 -2.58966,-0.50808 0,-0.27942 -0.582694,-0.65429 -1.294844,-0.83303 -0.71216,-0.17873 -1.29484,-0.53279 -1.29484,-0.78678 0,-0.25397 -0.53121,-0.46179 -1.18049,-0.46179 -0.64928,0 -1.51648,-0.46613 -1.92711,-1.03587 -0.47377,-0.65731 -1.34078,-1.03586 -2.3725,-1.03586 -1.12969,0 -1.92264,-0.39517 -2.59827,-1.29484 -0.53481,-0.71216 -1.40148,-1.29484 -1.92593,-1.29484 -1.00128,0 -5.0158,-3.7147 -5.0158,-4.64119 0,-0.29598 -0.55774,-0.53815 -1.23942,-0.53815 -1.26303,0 -1.86819,-0.85259 -1.86819,-2.63204 0,-0.62614 -0.35909,-0.99351 -0.97113,-0.99351 -0.66468,0 -1.06918,-0.49031 -1.28188,-1.55381 -0.21425,-1.07125 -0.61593,-1.5538 -1.293386,-1.5538 -0.735441,0 -1.060957,-0.4899 -1.294039,-1.94749 -0.173536,-1.08519 -0.776162,-2.28246 -1.361034,-2.704 -0.603367,-0.43489 -1.049616,-1.34464 -1.049616,-2.13983 0,-1.03443 -0.318663,-1.46331 -1.263398,-1.70043 -1.028421,-0.25812 -1.328347,-0.75021 -1.612608,-2.64582 -0.271927,-1.8133 -0.565471,-2.32872 -1.326277,-2.32872 -0.692085,0 -0.977063,-0.3708 -0.977063,-1.27131 0,-0.6992 -0.555873,-1.82716 -1.235269,-2.50654 -0.680166,-0.68017 -1.397232,-2.19393 -1.595678,-3.36851 -0.233232,-1.3805 -0.686947,-2.23689 -1.285804,-2.42695 -0.985246,-0.3127 -1.58053,-3.07413 -1.58053,-7.331858 0,-1.91313 -0.158366,-2.25842 -1.035868,-2.25842 -0.872488,0 -1.036771,-0.34719 -1.041573,-2.20121 -0.01018,-3.93925 -0.560322,-6.08574 -1.559719,-6.08574 -0.540801,0 -1.044217,-0.52697 -1.236936,-1.29484 -0.178744,-0.71216 -0.553616,-1.29482 -0.833052,-1.29482 -0.742273,0 -0.621976,-1.93946 0.139358,-2.24666 0.517936,-0.20901 0.517936,-0.26942 0,-0.30213 -0.899171,-0.0568 -0.859278,-5.08238 0.04755,-5.989195 0.581326,-0.581313 0.811745,-0.532923 1.409177,0.295965 0.925488,1.28405 1.521406,1.26007 1.521406,-0.0613 0,-0.578675 0.349607,-1.186298 0.776902,-1.350262 0.427298,-0.164043 0.776902,-0.65433 0.776902,-1.089709 0,-0.435358 0.582678,-1.331583 1.294838,-1.99159 0.738973,-0.684848 1.294836,-1.775868 1.294836,-2.541445 0,-1.527593 -0.04692,-1.464129 5.179346,-7.002777 2.136482,-2.264179 5.39947,-5.741489 7.251086,-7.727343 1.851619,-1.985874 3.657909,-3.62166 4.013989,-3.63505 0.35608,-0.0137 0.64742,-0.257437 0.64742,-0.5423 0,-0.284882 0.46614,-0.517947 1.03586,-0.517947 0.56973,0 1.03587,-0.214548 1.03587,-0.476781 0,-0.262233 0.69922,-0.63035 1.55381,-0.818059 0.85459,-0.187729 1.5538,-0.555826 1.5538,-0.81804 0,-0.262233 0.46614,-0.47678 1.03587,-0.47678 0.56973,0 1.03587,-0.233086 1.03587,-0.517948 0,-0.284863 0.24972,-0.517928 0.55493,-0.517928 0.30521,0 0.90454,-0.349599 1.33183,-0.776912 0.4273,-0.427294 1.34293,-0.776892 2.03475,-0.776892 0.69181,0 1.25784,-0.233066 1.25784,-0.517928 0,-0.319864 2.68833,-0.517948 7.02911,-0.517948 5.557524,0 7.191764,0.162672 7.806024,0.776912 0.4804,0.480402 1.75111,0.776892 3.32957,0.776892 1.40398,0 2.55269,0.233066 2.55269,0.517948 0,0.287074 1.36952,0.517928 3.0727,0.517928 2.53884,0 3.12574,0.167174 3.37795,0.961704 0.24677,0.777538 1.02084,1.021684 4.04228,1.27499 2.05538,0.172265 3.8177,0.555318 3.91631,0.851084 0.0987,0.295766 0.62596,0.537758 1.17196,0.537758 0.54598,0 0.99271,0.233065 0.99271,0.517947 0,0.284863 0.3496,0.517929 0.77689,0.517929 0.4273,0 0.77692,0.221946 0.77692,0.493223 0,0.271258 1.45669,0.5626 3.23708,0.64742 2.90744,0.138595 3.25395,0.272863 3.40261,1.319544 0.1057,0.744339 0.52315,1.165348 1.15548,1.165348 0.62403,0 1.1101,0.478641 1.31496,1.29484 0.17873,0.712156 0.53279,1.29484 0.78676,1.29484 0.25399,0 0.46179,0.466132 0.46179,1.035876 0,0.569725 0.23308,1.035856 0.51794,1.035856 0.30152,0 0.51793,1.707746 0.51793,4.087341 0,3.92786 0.0505,4.100007 1.29484,4.412295 0.83601,0.209829 1.29484,0.688548 1.29484,1.351002 0,0.870697 -0.35277,1.02599 -2.33071,1.02599 -1.49365,0 -2.34797,0.232517 -2.37874,0.64742 -0.15582,2.100508 0.20327,5.334143 0.60876,5.481468 0.26131,0.09494 0.47514,1.410174 0.47514,2.922714 0,1.96671 0.2213,2.83498 0.77691,3.0482 0.48762,0.18714 0.77689,0.97915 0.77689,2.12715 0,1.00596 0.23308,1.82903 0.51795,1.82903 0.28486,0 0.51793,0.67428 0.51793,1.49839 0,0.85412 0.33405,1.62657 0.77689,1.79652 0.42731,0.16404 0.77691,0.77157 0.77691,1.35024 0,0.57867 0.23306,1.05212 0.51793,1.05212 0.28486,0 0.51795,0.71586 0.51795,1.5908 0,0.87495 0.34959,1.9404 0.77689,2.3677 0.51585,0.51585 0.77691,1.80867 0.77691,3.847518 0,1.70178 0.23087,3.07061 0.51793,3.07061 0.33094,0 0.51793,4.50111 0.51793,12.46743 0,10.39158 -0.1294,12.59678 -0.7769,13.24432 -0.45667,0.45668 -0.77691,1.72235 -0.77691,3.07063 0,1.26152 -0.23306,2.2937 -0.51793,2.2937 -0.28486,0 -0.51792,0.58268 -0.51792,1.29484 0,0.80566 -0.29352,1.29484 -0.77692,1.29484 -0.48339,0 -0.77689,0.48915 -0.77689,1.29484 0,0.71215 -0.23308,1.29482 -0.51795,1.29482 -0.28486,0 -0.51792,0.46615 -0.51792,1.03587 0,0.56973 -0.24973,1.03588 -0.55493,1.03588 -0.71707,0 -2.03475,1.31766 -2.03475,2.03473 0,0.30522 -0.58267,0.55493 -1.29484,0.55493 -0.71216,0 -1.29482,0.23308 -1.29482,0.51795 0,0.28486 -0.34962,0.51792 -0.77692,0.51792 -0.42729,0 -0.77689,0.3496 -0.77689,0.77692 0,0.54259 -0.54672,0.77689 -1.81279,0.77689 -0.99701,0 -1.81276,0.23306 -1.81276,0.51793 0,0.28488 -0.93229,0.51794 -2.07174,0.51794 -1.13945,0 -2.07173,0.23307 -2.07173,0.51793 0,0.33059 -4.40245,0.51793 -12.17147,0.51793 -7.76902,0 -12.17146,-0.18734 -12.17146,-0.51793 z m 23.30706,-2.58968 c 0,-0.28486 0.93228,-0.51793 2.07173,-0.51793 1.13947,0 2.07175,-0.23306 2.07175,-0.51793 0,-0.28486 0.44119,-0.51794 0.98044,-0.51794 0.53926,0 1.11463,-0.3496 1.27859,-0.7769 0.16404,-0.42729 0.77464,-0.77691 1.35705,-0.77691 1.33634,0 6.22467,-4.8572 6.22467,-6.18505 0,-0.5456 0.3496,-1.34164 0.77689,-1.76894 0.42732,-0.42729 0.77692,-1.14314 0.77692,-1.5908 0,-0.44763 0.23306,-0.81389 0.51792,-0.81389 0.28487,0 0.51795,-0.82307 0.51795,-1.82903 0,-1.14801 0.28927,-1.94003 0.77689,-2.12715 0.65929,-0.253 0.77692,-2.09337 0.77692,-12.1552 0,-7.55945 -0.18773,-11.85709 -0.51795,-11.85709 -0.28774,0 -0.51793,-1.38116 -0.51793,-3.1076 0,-2.417028 -0.17266,-3.107608 -0.77691,-3.107608 -0.57548,0 -0.77689,-0.60426 -0.77689,-2.33072 0,-1.28188 -0.23307,-2.33069 -0.51793,-2.33069 -0.28486,0 -0.51795,-0.4495 -0.51795,-0.99888 0,-0.54939 -0.3496,-1.34848 -0.77689,-1.77577 -0.4273,-0.4273 -0.77691,-1.2597 -0.77691,-1.84977 0,-0.59008 -0.23307,-1.07287 -0.51793,-1.07287 -0.28486,0 -0.51793,-0.81575 -0.51793,-1.81277 0,-1.26606 -0.23432,-1.81277 -0.77691,-1.81277 -0.60426,0 -0.77689,-0.69058 -0.77689,-3.1076 0,-1.72646 -0.23021,-3.10761 -0.51795,-3.10761 -0.28486,0 -0.51793,-0.81575 -0.51793,-1.81277 0,-1.588335 -0.16032,-1.812768 -1.29484,-1.812768 -1.03588,0 -1.29484,0.258964 -1.29484,1.29482 0,0.805688 -0.29349,1.294838 -0.77689,1.294838 -0.44055,0 -0.77691,0.46451 -0.77691,1.07288 0,0.59006 -0.29135,1.39772 -0.64742,1.79479 -1.53699,1.71388 -1.94224,2.29975 -1.94224,2.80775 0,0.29689 -0.23309,0.5398 -0.51795,0.5398 -0.28486,0 -0.51793,0.46615 -0.51793,1.03587 0,0.56973 -0.24972,1.03588 -0.55493,1.03588 -0.71706,0 -2.03475,1.31766 -2.03475,2.03473 0,0.30522 -0.3496,0.55493 -0.77689,0.55493 -0.4273,0 -0.77691,0.23306 -0.77691,0.51795 0,0.28486 -0.24971,0.51793 -0.55493,0.51793 -0.3052,0 -0.90454,0.34959 -1.33184,0.77689 -0.42729,0.42729 -1.34291,0.77691 -2.03473,0.77691 -0.69182,0 -1.25784,0.23306 -1.25784,0.51793 0,0.28486 -0.25611,0.51793 -0.5691,0.51793 -0.31301,0 -1.22228,0.69921 -2.02058,1.5538 -0.87223,0.93373 -1.97386,1.5538 -2.76048,1.5538 -0.71995,0 -1.65861,0.34962 -2.0859,0.77691 -0.4273,0.4273 -1.25971,0.7769 -1.84977,0.7769 -0.59008,0 -1.07287,0.23308 -1.07287,0.51794 0,0.28774 -1.38115,0.51793 -3.10761,0.51793 -2.41702,0 -3.10761,0.17266 -3.10761,0.77691 0,0.6589 -1.28615,0.7769 -8.467764,0.7769 -4.65728,0 -10.25097,-0.15073 -12.43043,-0.33498 -3.39229,-0.28674 -3.96266,-0.47312 -3.96266,-1.29482 0,-0.86717 -0.47515,-0.95988 -4.920379,-0.95988 -2.706207,0 -4.920378,-0.2078 -4.920378,-0.46177 0,-0.25399 -0.582676,-0.60803 -1.294838,-0.78678 -0.71216,-0.17872 -1.294836,-0.55361 -1.294836,-0.83305 0,-0.27944 -0.349606,-0.50806 -0.776902,-0.50806 -0.427295,0 -0.776902,-0.23307 -0.776902,-0.51795 0,-0.28486 -0.815747,-0.51793 -1.812772,-0.51793 -1.446409,0 -1.81277,0.20229 -1.81277,1.00097 0,0.55053 0.437256,1.13975 0.971682,1.30937 0.823283,0.26129 1.006756,0.97666 1.201338,4.68396 0.193269,3.682168 0.408476,4.530648 1.358061,5.354208 0.620621,0.53827 1.284437,1.75884 1.475146,2.71238 0.190704,0.95356 0.890355,2.27735 1.554767,2.94176 0.664417,0.66441 1.208026,1.49557 1.208026,1.84705 0,0.35145 0.466141,0.97499 1.035868,1.38563 0.569729,0.41063 1.03587,1.25318 1.03587,1.87233 0,0.61914 0.699213,1.87424 1.553804,2.78908 0.854593,0.91484 1.553804,1.9027 1.553804,2.19523 0,0.29256 0.430917,0.90885 0.957593,1.36956 0.526679,0.46071 1.124268,1.73486 1.327978,2.83142 0.25894,1.39391 1.06164,2.66563 2.66795,4.22678 1.26366,1.22812 2.29756,2.48683 2.29756,2.7971 0,0.31027 0.26401,0.56414 0.58667,0.56414 0.6334,0 2.52094,1.97221 2.52094,2.63402 0,0.22209 0.46614,0.55174 1.03587,0.73256 0.56973,0.18087 1.03587,0.7792 1.03587,1.32974 0,0.66345 0.35762,1.00095 1.0606,1.00095 0.58333,0 1.60061,0.58268 2.26062,1.29484 0.72314,0.7803 1.76973,1.29484 2.63367,1.29484 0.78851,0 1.8106,0.43092 2.27131,0.95759 0.46071,0.52668 1.66098,1.1104 2.66725,1.29717 1.00628,0.18675 2.164814,0.80467 2.574534,1.37313 0.56555,0.78466 1.34096,1.03352 3.22026,1.03352 1.36144,0 2.47534,0.23307 2.47534,0.51793 0,0.32924 4.05714,0.51795 11.13559,0.51795 7.07844,0 11.1356,-0.18871 11.1356,-0.51795 z M 102.05916,95.353202 c 0.51585,-0.51585 1.80866,-0.77691 3.8475,-0.77691 1.7018,0 3.07061,-0.23087 3.07061,-0.51792 0,-0.28487 0.64778,-0.51793 1.43947,-0.51793 0.84531,0 1.74764,-0.42757 2.18609,-1.03588 0.41063,-0.56972 1.27783,-1.03587 1.92711,-1.03587 0.64926,0 1.1805,-0.2078 1.1805,-0.46177 0,-0.25399 0.58266,-0.60803 1.29482,-0.78678 0.71217,-0.17872 1.29484,-0.55361 1.29484,-0.83305 0,-0.27944 0.58268,-0.50806 1.29484,-0.50806 0.71215,0 1.29484,-0.23307 1.29484,-0.51793 0,-0.28489 0.24291,-0.51795 0.53979,-0.51795 0.54557,0 1.58146,-0.74448 2.72211,-1.95632 0.34243,-0.36381 1.84622,-1.94746 3.34177,-3.51922 1.49553,-1.57175 2.71915,-3.19691 2.71915,-3.61148 0,-0.41455 0.23307,-0.75373 0.51793,-0.75373 0.28486,0 0.51795,-0.36074 0.51795,-0.80164 0,-0.440897 0.58266,-1.341643 1.29482,-2.00165 0.71217,-0.660007 1.29484,-1.475756 1.29484,-1.812768 0,-0.337011 0.58268,-1.152761 1.29484,-1.812768 0.71215,-0.660007 1.29484,-1.565451 1.29484,-2.012105 0,-0.446654 0.51354,-0.975094 1.14119,-1.174294 0.62767,-0.19922 1.44342,-0.664411 1.81277,-1.033781 0.79067,-0.790654 0.92545,-6.44284 0.15366,-6.44284 -0.28486,0 -0.51792,-0.359445 -0.51792,-0.798758 0,-0.986976 -0.70241,-1.878972 -3.34757,-4.251109 -0.39707,-0.356078 -1.54701,-0.64742 -2.55544,-0.64742 -1.94612,0 -2.00451,0.242853 -0.70979,2.951748 0.72404,1.514868 0.22508,13.24804 -0.57471,13.514639 -0.31985,0.106686 -0.58151,0.74193 -0.58151,1.411803 0,0.669873 -0.21717,1.789141 -0.4826,2.487241 -0.59241,1.558192 -4.07383,5.013382 -5.05143,5.013382 -0.39255,0 -0.84786,0.3496 -1.01184,0.77689 -0.23191,0.60435 -1.2542,0.77691 -4.60278,0.77691 -4.84779,0 -6.00343,0.27625 -5.59612,1.33769 0.34488,0.89873 -0.93121,0.9786 -1.79731,0.11256 -0.34182,-0.34185 -0.62152,-1.14383 -0.62152,-1.78221 0,-0.63838 -0.19928,-1.28384 -0.44284,-1.43437 -0.24355,-0.15054 -0.57021,-2.08712 -0.72587,-4.303536 -0.28633,-4.076536 -2.1184,-8.823884 -4.00266,-10.371933 -0.65962,-0.541928 -4.44315,-0.448787 -5.08321,0.125087 -0.0852,0.07635 0.32122,0.986468 0.90308,2.022441 0.58188,1.035994 1.0218,2.053958 0.97762,2.262163 -0.0442,0.208224 0.23545,1.077787 0.62142,1.932374 0.91931,2.035517 1.0479,15.135864 0.15406,15.690274 -0.33349,0.20684 -0.76661,1.01468 -0.96253,1.79521 -0.19589,0.78052 -0.68052,1.41913 -1.07692,1.41913 -0.39642,0 -0.72075,0.34962 -0.72075,0.77691 0,0.42729 -0.35189,0.77689 -0.78198,0.77689 -0.43008,0 -1.181094,0.46615 -1.668914,1.03588 -0.74771,0.87324 -1.52789,1.03585 -4.96967,1.03585 -3.67947,0 -4.31015,-0.15347 -6.38505,-1.5538 -1.26626,-0.85459 -2.45039,-1.5538 -2.6314,-1.5538 -0.93766,0 -2.72657,-2.41791 -2.72657,-3.68525 0,-0.78812 -0.21279,-1.56447 -0.47287,-1.7252 -0.26008,-0.16072 -0.63017,-1.22331 -0.82243,-2.36128 -0.19225,-1.13796 -0.56214,-2.06903 -0.82197,-2.06903 -0.54144,0 -0.63866,-9.001117 -0.13677,-12.662769 0.2121,-1.547462 0.641,-2.560924 1.16535,-2.753664 1.19599,-0.439646 1.58971,-1.195494 1.5987,-3.069161 0.004,-0.908988 0.22072,-1.784227 0.4808,-1.944962 0.26007,-0.160714 0.63015,-1.223213 0.82239,-2.361057 0.48186,-2.852129 3.43853,-5.363448 5.69686,-4.838786 0.85459,0.198555 2.13648,0.384815 2.84864,0.413924 2.47361,0.10101 5.11997,1.665834 5.45908,3.22788 0.17422,0.802144 0.89638,2.656256 1.60497,4.120247 1.275274,2.634762 1.305144,2.656334 2.938914,2.122707 0.90781,-0.29651 1.96814,-0.623068 2.3563,-0.725683 0.56244,-0.148774 0.57687,-0.341866 0.0711,-0.951329 -0.35475,-0.42745 -0.66602,-2.423504 -0.70574,-4.525793 l -0.0711,-3.761057 4.38685,-0.152297 c 3.12301,-0.108448 4.65017,-0.39059 5.30088,-0.979479 1.09825,-0.993887 5.15898,-0.681129 7.60952,0.586109 1.65893,0.857876 6.78672,1.116331 6.78672,0.342082 0,-0.598579 -1.30527,-1.091275 -2.891,-1.091275 -0.68886,0 -1.25248,-0.233085 -1.25248,-0.517947 0,-0.28774 -1.38115,-0.517928 -3.10761,-0.517928 -2.6911,0 -3.10761,-0.129982 -3.10761,-0.969241 0,-0.865687 -0.6064,-1.008529 -5.67579,-1.337084 -4.95894,-0.32141 -5.71561,-0.493361 -5.99115,-1.361475 -0.28767,-0.906403 -0.85786,-0.993612 -6.49566,-0.993612 -3.774914,0 -6.180304,0.201569 -6.180304,0.517928 0,0.284862 -0.79082,0.517948 -1.75736,0.517948 -1.08431,0 -1.87154,0.297547 -2.05549,0.776892 -0.16396,0.427294 -0.77157,0.776912 -1.35025,0.776912 -0.57866,0 -1.05212,0.233065 -1.05212,0.517928 0,0.284862 -0.56697,0.517928 -1.25993,0.517928 -0.79346,0 -1.37839,0.373226 -1.57988,1.008059 -0.22796,0.718224 -0.98251,1.107385 -2.62458,1.353625 -1.26754,0.190078 -2.30463,0.531533 -2.30463,0.758785 0,0.227252 -1.22362,1.704163 -2.71916,3.282045 -1.495532,1.577882 -3.004032,3.171776 -3.352219,3.542007 -0.348181,0.370231 -0.930857,0.9748 -1.294836,1.343524 -2.981217,3.019969 -3.510413,3.688628 -3.510413,4.43555 0,0.467678 -0.233069,0.85032 -0.517934,0.85032 -0.284864,0 -0.517934,0.349599 -0.517934,0.776892 0,0.427294 -0.249716,0.776912 -0.554931,0.776912 -0.838919,0 -2.034742,1.369755 -2.034742,2.330696 0,0.467991 -0.349607,1.200506 -0.776902,1.627799 -0.427296,0.427294 -0.776902,1.226404 -0.776902,1.775771 0,0.549385 -0.23307,0.998878 -0.517934,0.998878 -0.284865,0 -0.517936,0.582684 -0.517936,1.29484 0,0.805691 -0.293497,1.294841 -0.776902,1.294841 -0.427296,0 -0.776902,0.3496 -0.776902,0.77689 0,0.42729 -0.23307,0.77691 -0.517934,0.77691 -0.284865,0 -0.517934,0.69922 -0.517934,1.55381 0,0.98989 -0.264355,1.5538 -0.728414,1.5538 -2.49418,0 3.51066,6.88043 6.493155,7.43996 0.978431,0.18361 2.114183,0.79881 2.523896,1.36727 0.409713,0.56843 1.043083,1.03352 1.407493,1.03352 0.364407,0 0.662561,0.23307 0.662561,0.51793 0,0.30503 1.825105,0.51795 4.439442,0.51795 3.255582,0 4.646612,0.20717 5.216342,0.77689 0.4273,0.42729 1.69253,0.77691 2.81165,0.77691 1.1191,0 2.03474,0.23307 2.03474,0.51793 0,0.32311 3.03361,0.51793 8.06498,0.51793 6.47828,0 8.217814,-0.15289 8.841884,-0.77689 z m -4.476444,-2.82037 c 0,-0.26932 0.63252,-0.79373 1.40564,-1.16535 0.77309,-0.37164 2.113254,-1.7245 2.978114,-3.00638 1.5272,-2.26357 1.57219,-2.5023 1.56197,-8.28697 -0.008,-4.646456 -0.21308,-6.367709 -0.93164,-7.827355 -0.87023,-1.767725 -1.0939,-1.889171 -4.048444,-2.197974 -1.72003,-0.179703 -3.74804,-0.74334 -4.50667,-1.252322 -0.9787,-0.65664 -2.62977,-0.97435 -5.68425,-1.093761 l -4.3049,-0.168349 0.16142,9.871721 0.16141,9.87172 2.07174,2.12592 c 1.13946,1.16924 2.65442,2.43707 3.36658,2.81736 1.48772,0.79449 7.76901,1.04648 7.76901,0.3117 z m -15.07966,-18.28546 c -0.044,-5.067858 -0.17164,-6.320806 -0.48809,-4.790904 -0.81977,3.963252 -0.5723,11.653544 0.37501,11.653544 0.095,0 0.14583,-3.08819 0.11308,-6.86264 z m 41.494324,5.4715 c 3.12368,-1.38576 5.09916,-3.666327 5.48435,-6.331295 0.1889,-1.307505 0.60077,-2.698695 0.91508,-3.091536 0.3143,-0.392841 0.66094,-3.131412 0.77031,-6.085724 0.17324,-4.679362 0.0912,-5.371493 -0.63681,-5.371493 -0.45961,0 -0.83564,0.207794 -0.83564,0.461786 0,0.253972 -0.58268,0.608014 -1.29484,0.786758 -0.71215,0.178724 -1.29484,0.553614 -1.29484,0.833054 0,0.27944 -0.43761,0.508063 -0.97245,0.508063 -0.53484,0 -1.2626,0.349618 -1.61723,0.776911 -0.35461,0.427294 -1.43809,0.776892 -2.40772,0.776892 -2.45483,0 -8.4689,1.187293 -8.4689,1.671923 0,0.219891 -1.05117,0.399829 -2.33593,0.399829 h -2.33592 l 1.56285,2.928708 c 1.13894,2.134334 1.64649,3.92553 1.87122,6.603671 0.16972,2.021227 0.54874,4.257943 0.84251,4.970473 0.51657,1.25296 0.67218,1.29012 4.73766,1.13085 2.31513,-0.0906 5.01792,-0.52595 6.0163,-0.96887 z M 101.20825,68.161648 c 0,-0.284882 -0.23306,-0.517948 -0.51792,-0.517948 -0.28487,0 -0.51793,-0.245848 -0.51793,-0.546351 0,-0.558313 -1.707044,-4.688211 -2.607854,-6.309257 -0.27488,-0.494633 -0.49975,-1.32205 -0.49975,-1.838666 0,-1.199605 -0.9796,-2.182353 -2.17534,-2.182353 -0.83153,0 -0.93228,0.525347 -0.93228,4.861375 v 4.861356 l 1.68329,0.772977 c 3.26483,1.499247 5.567784,1.871025 5.567784,0.898867 z M 89.902396,65.232725 c 0.77346,-0.69996 0.94717,-1.64988 0.94717,-5.17934 v -4.322169 h -1.57005 c -1.02261,0 -1.68667,0.316027 -1.90448,0.906384 -0.18393,0.49851 -0.54389,1.047602 -0.79992,1.220179 -0.25603,0.172656 -0.59505,1.279689 -0.7534,2.460188 -0.15834,1.180519 -0.46477,2.146393 -0.68096,2.146393 -0.21619,0 -0.48831,0.81575 -0.6047,1.812768 l -0.21163,1.812768 h 2.3154 c 1.42768,0 2.67855,-0.328633 3.26257,-0.857171 z m 22.933494,-3.29424 c 2.00829,-0.0039 3.9677,-0.208303 4.35422,-0.453232 0.99238,-0.628803 0.34169,-3.145349 -1.25986,-4.872553 -1.21605,-1.311479 -1.57747,-1.399431 -5.7504,-1.399431 h -4.45279 l 0.34744,2.956328 c 0.36677,3.120508 1.64021,5.246562 2.57978,4.306998 0.29159,-0.291596 2.17333,-0.533745 4.18161,-0.53811 z m 11.89236,-1.80484 c 0.9337,-0.712156 1.93843,-1.294821 2.23273,-1.294821 0.29431,0 0.81383,-0.335837 1.15448,-0.746315 0.51617,-0.621913 0.28936,-0.799267 -1.36091,-1.064162 -1.08914,-0.174809 -2.38498,-0.538209 -2.87963,-0.807509 -1.26125,-0.686649 -7.17228,-0.634637 -5.9937,0.05266 0.50683,0.295609 1.0227,1.4894 1.22415,2.832885 0.33519,2.235207 0.41508,2.322005 2.13675,2.322005 1.10975,0 2.43276,-0.491384 3.48613,-1.29484 z m 6.13177,-5.781325 c -0.35608,-0.143685 -0.93876,-0.143685 -1.29484,0 -0.35608,0.143684 -0.0648,0.261234 0.64742,0.261234 0.71216,0 1.0035,-0.117648 0.64742,-0.261234 z m -12.94836,-0.517929 c -0.3561,-0.143684 -0.93876,-0.143684 -1.29484,0 -0.35608,0.143684 -0.0648,0.261235 0.64742,0.261235 0.71216,0 1.0035,-0.117648 0.64742,-0.261235 z"
       id="path24" />
  </g>
</svg>
