<?xml version="1.0" encoding="UTF-8" standalone="no"?>
<svg
   xmlns:dc="http://purl.org/dc/elements/1.1/"
   xmlns:cc="http://creativecommons.org/ns#"
   xmlns:rdf="http://www.w3.org/1999/02/22-rdf-syntax-ns#"
   xmlns:svg="http://www.w3.org/2000/svg"
   xmlns="http://www.w3.org/2000/svg"
   xmlns:sodipodi="http://sodipodi.sourceforge.net/DTD/sodipodi-0.dtd"
   xmlns:inkscape="http://www.inkscape.org/namespaces/inkscape"
   width="210mm"
   height="297mm"
   viewBox="0 0 210 297"
   version="1.1"
   id="svg32"
   inkscape:version="1.0.2 (e86c870879, 2021-01-15, custom)"
   sodipodi:docname="factory.svg">
  <defs
     id="defs26" />
  <sodipodi:namedview
     id="base"
     pagecolor="#ffffff"
     bordercolor="#666666"
     borderopacity="1.0"
     inkscape:pageopacity="0.0"
     inkscape:pageshadow="2"
     inkscape:zoom="0.7"
     inkscape:cx="618.94743"
     inkscape:cy="506.63399"
     inkscape:document-units="mm"
     inkscape:current-layer="layer1"
     inkscape:document-rotation="0"
     showgrid="false"
     inkscape:window-width="1920"
     inkscape:window-height="1017"
     inkscape:window-x="1358"
     inkscape:window-y="-8"
     inkscape:window-maximized="1" />
  <metadata
     id="metadata29">
    <rdf:RDF>
      <cc:Work
         rdf:about="">
        <dc:format>image/svg+xml</dc:format>
        <dc:type
           rdf:resource="http://purl.org/dc/dcmitype/StillImage" />
        <dc:title></dc:title>
      </cc:Work>
    </rdf:RDF>
  </metadata>
  <g
     inkscape:label="Layer 1"
     inkscape:groupmode="layer"
     id="layer1">
    <path
       style="fill:#000000;stroke-width:0.601485"
       d="m 120.81132,127.56465 c -1.32326,-0.11867 -2.94726,-0.4579 -3.60891,-0.75379 -0.66163,-0.29592 -3.07816,-0.68896 -5.37006,-0.87344 -2.29188,-0.18459 -4.33427,-0.60595 -4.53861,-0.93659 -0.20438,-0.33065 -2.72752,-0.78225 -5.60706,-1.00361 -2.879538,-0.22142 -5.235504,-0.6057 -5.235504,-0.85413 0,-0.24843 -1.895753,-0.64208 -4.212777,-0.87478 -2.317024,-0.2327 -4.355702,-0.65433 -4.530407,-0.937 -0.174819,-0.28266 -0.731103,-0.35527 -1.236465,-0.1614 -0.599932,0.23022 -1.032046,-0.0803 -1.244967,-0.89447 -0.195961,-0.74924 -0.909377,-1.32064 -1.787269,-1.43145 -2.025674,-0.25566 -2.078916,-1.34658 -0.07707,-1.57707 l 1.647528,-0.1896 0.15686,-25.0727 0.156859,-25.072699 7.744829,0.139809 c 4.629387,0.08343 8.071623,0.410928 8.557253,0.813944 0.90569,0.751677 17.23223,1.545751 19.59395,0.953003 0.8091,-0.203009 3.0263,-1.730141 4.92712,-3.393515 1.9008,-1.663352 3.71122,-3.024282 4.02312,-3.024282 0.84834,0 7.74596,-7.466981 8.92023,-9.65654 0.56181,-1.047573 1.28027,-1.942402 1.59656,-1.98855 0.34077,-0.04979 0.64233,4.035457 0.74015,10.026297 l 0.16504,10.110185 4.32238,-3.944956 c 2.8197,-2.57348 4.82669,-3.944958 5.77292,-3.944958 1.00292,0 2.99209,-1.504695 6.44643,-4.876408 2.74778,-2.68203 5.31967,-4.768493 5.71532,-4.636617 0.78391,0.261297 2.57907,6.73813 3.26166,11.767921 0.23565,1.736416 0.65022,3.294193 0.92127,3.461692 0.27102,0.167544 0.68229,1.453499 0.91387,2.857735 0.23161,1.404237 0.72883,2.932642 1.10493,3.39647 0.96517,1.190179 1.28919,39.903639 0.37101,44.326419 -0.58065,2.79697 -0.89824,3.29711 -2.28595,3.60003 -0.88637,0.19346 -2.0176,0.49124 -2.51382,0.66174 -0.8864,0.30451 -9.14181,1.58608 -16.84159,2.61451 -2.15032,0.28719 -6.41333,0.53608 -9.4734,0.55306 -3.28757,0.0182 -5.56375,0.27696 -5.56375,0.63237 0,0.57429 -7.4036,0.67932 -12.93193,0.18346 z m 12.02972,-1.98794 c 0.20437,-0.33081 2.85946,-0.61821 5.89997,-0.63867 7.15906,-0.0482 17.22346,-1.25044 25.84923,-3.08791 2.91179,-0.6203 3.54958,-0.99003 3.90965,-2.26658 0.73506,-2.60589 0.52105,-43.313856 -0.23027,-43.801826 -0.3633,-0.235972 -0.84204,-1.591195 -1.06389,-3.011618 -0.22188,-1.420422 -0.66195,-3.044421 -0.97799,-3.608912 -0.31604,-0.564468 -0.8374,-2.65034 -1.1586,-4.63523 -0.64238,-3.969845 -1.20282,-6.759062 -1.62232,-8.074116 -0.19232,-0.602932 -1.06772,-0.07638 -2.95865,1.779314 -1.477,1.449589 -2.68758,2.917592 -2.69012,3.262229 -0.007,0.8402 -4.44084,3.333312 -5.9291,3.333312 -0.65135,0 -3.34218,2.030016 -5.97963,4.511129 -2.63747,2.481136 -5.09594,4.511152 -5.46329,4.511152 -0.45958,0 -0.67341,-2.860987 -0.68552,-9.172662 l -0.0182,-9.172634 -1.81037,2.105195 c -3.46324,4.02725 -4.63668,5.122405 -7.25222,6.768341 -1.44713,0.910647 -3.98446,2.759024 -5.63854,4.107495 L 122.01376,70.936506 111.56635,70.658 c -6.32912,-0.168681 -10.60089,-0.526821 -10.83677,-0.908491 -0.21414,-0.346523 -3.429884,-0.822422 -7.146052,-1.057576 l -6.756679,-0.427522 v 24.405795 24.405814 l 1.654075,0.19028 c 1.005994,0.11571 1.880476,0.70608 2.231888,1.50665 0.60923,1.38787 1.973865,1.97005 4.649711,1.98364 0.890214,0.005 1.761377,0.23925 1.9359,0.52164 0.174592,0.28237 2.544039,0.69912 5.265627,0.92609 2.72156,0.22688 5.2784,0.68663 5.68185,1.02147 0.40344,0.33482 2.58359,0.85978 4.84476,1.16654 2.26115,0.30676 5.46454,0.79792 7.11862,1.09143 4.23869,0.75215 12.18762,0.81064 12.63119,0.093 z"
       id="path48" />
  </g>
</svg>
