<?xml version="1.0" encoding="UTF-8" standalone="no"?>
<svg
   xmlns:dc="http://purl.org/dc/elements/1.1/"
   xmlns:cc="http://creativecommons.org/ns#"
   xmlns:rdf="http://www.w3.org/1999/02/22-rdf-syntax-ns#"
   xmlns:svg="http://www.w3.org/2000/svg"
   xmlns="http://www.w3.org/2000/svg"
   xmlns:sodipodi="http://sodipodi.sourceforge.net/DTD/sodipodi-0.dtd"
   xmlns:inkscape="http://www.inkscape.org/namespaces/inkscape"
   width="210mm"
   height="297mm"
   viewBox="0 0 210 297"
   version="1.1"
   id="svg8"
   inkscape:version="1.0.2 (e86c870879, 2021-01-15, custom)"
   sodipodi:docname="mouse.svg">
  <defs
     id="defs2" />
  <sodipodi:namedview
     id="base"
     pagecolor="#ffffff"
     bordercolor="#666666"
     borderopacity="1.0"
     inkscape:pageopacity="0.0"
     inkscape:pageshadow="2"
     inkscape:zoom="0.98994949"
     inkscape:cx="287.06182"
     inkscape:cy="330.91408"
     inkscape:document-units="mm"
     inkscape:current-layer="layer1"
     inkscape:document-rotation="0"
     showgrid="false"
     inkscape:window-width="1320"
     inkscape:window-height="768"
     inkscape:window-x="30"
     inkscape:window-y="394"
     inkscape:window-maximized="0" />
  <metadata
     id="metadata5">
    <rdf:RDF>
      <cc:Work
         rdf:about="">
        <dc:format>image/svg+xml</dc:format>
        <dc:type
           rdf:resource="http://purl.org/dc/dcmitype/StillImage" />
        <dc:title></dc:title>
      </cc:Work>
    </rdf:RDF>
  </metadata>
  <g
     inkscape:label="Layer 1"
     inkscape:groupmode="layer"
     id="layer1">
    <path
       style="fill:#000000;stroke-width:0.767167"
       d="m 102.19903,122.58387 c -0.24131,-0.4048 -2.203082,-0.95266 -4.359492,-1.21745 -2.15642,-0.26479 -4.15866,-0.88053 -4.44942,-1.3683 -0.29077,-0.48778 -2.18106,-1.07469 -4.20066,-1.30427 -4.71081,-0.53548 -6.6388,-2.60738 -9.629807,-10.34857 -0.249,-0.64445 -1.445896,-2.92932 -2.65977,-5.07748 -2.072742,-3.668094 -2.21009,-4.437714 -2.257111,-12.6476 -0.02754,-4.80802 0.238929,-8.92703 0.592148,-9.15336 0.353219,-0.22633 0.845792,-2.61983 1.094605,-5.31887 0.25883,-2.80769 1.273506,-6.66039 2.371514,-9.00457 1.055519,-2.253466 1.919126,-4.58153 1.919126,-5.17347 0,-1.170683 2.036866,-6.435389 4.875415,-12.601541 0.9889,-2.148165 2.00067,-5.188625 2.24839,-6.756578 0.24772,-1.567952 0.94999,-3.280704 1.5606,-3.806114 0.61062,-0.52541 1.11022,-1.456412 1.11022,-2.068893 0,-1.370282 4.55366,-8.838273 6.29799,-10.328676 0.85941,-0.734302 3.469992,-1.115246 8.029742,-1.171727 l 6.75632,-0.08369 0.006,-2.38251 c 0.003,-1.310381 0.31637,-2.716452 0.69566,-3.124604 0.3793,-0.408151 0.80311,-1.56794 0.94179,-2.577309 0.42209,-3.072004 8.55944,-5.378455 9.372,-2.656401 0.22444,0.751857 0.72237,1.9774 1.1065,2.723428 0.38414,0.746028 0.70146,2.503618 0.70514,3.905754 0.006,2.287423 0.40383,2.752722 3.872,4.528936 3.13451,1.605329 4.27476,2.774131 6.03111,6.182104 1.1912,2.31138 2.46757,4.584223 2.83637,5.050762 1.40255,1.774248 4.58276,8.556938 4.58276,9.774021 0,0.69968 0.48056,1.983469 1.0679,2.852864 0.58734,0.869394 1.30963,2.968837 1.6051,4.665428 0.29547,1.696591 0.86123,3.508695 1.25724,4.026898 1.06872,1.398466 1.78908,34.600174 0.7507,34.600174 -0.46659,0 -1.04742,2.36626 -1.34222,5.46806 -0.28583,3.007434 -0.81493,5.468054 -1.17577,5.468054 -0.36084,0 -0.65608,0.67599 -0.65608,1.50222 0,0.82621 -1.01713,2.55676 -2.2603,3.84566 -1.24316,1.2889 -2.2603,2.72201 -2.2603,3.18469 0,0.46268 -0.49172,0.84124 -1.09271,0.84124 -0.60099,0 -1.36384,0.44784 -1.69522,0.9952 -1.06301,1.7558 -4.55234,3.64107 -7.70708,4.16409 -1.68672,0.27965 -3.06677,0.76975 -3.06677,1.08912 0,0.31937 -1.66974,0.81032 -3.71052,1.091 -2.04079,0.28069 -3.82078,0.80928 -3.95552,1.17466 -0.35418,0.96035 -14.67137,1.93721 -15.20762,1.03762 z m 13.45575,-3.31932 c 0.41439,-0.34348 2.10961,-0.87756 3.76716,-1.18684 1.65756,-0.30929 3.35278,-0.82827 3.76717,-1.15331 0.41438,-0.32504 2.27913,-0.84417 4.14388,-1.15363 5.05087,-0.83821 10.78025,-5.79102 13.67349,-11.82017 0.68302,-1.42333 1.48363,-4.795624 1.77914,-7.493974 0.29552,-2.69835 0.8912,-5.35937 1.32375,-5.913386 1.05144,-1.34667 0.18001,-30.888259 -0.92238,-31.269243 -0.43194,-0.149278 -0.79686,-1.208796 -0.81092,-2.354483 -0.0141,-1.145689 -0.68064,-3.489141 -1.4813,-5.207673 -0.80066,-1.718532 -1.46724,-3.507855 -1.4813,-3.976275 -0.0294,-0.979329 -3.93666,-8.958299 -6.08588,-12.427892 -0.7984,-1.288899 -1.76902,-3.084449 -2.15693,-3.990111 -0.38791,-0.905662 -2.0471,-2.371778 -3.68709,-3.258035 l -2.9818,-1.611377 -0.38593,3.549936 c -0.21225,1.952465 -0.73501,3.77362 -1.16167,4.047011 -0.42666,0.273391 -1.02435,1.548107 -1.3282,2.832702 -0.30385,1.284596 -0.92406,2.585851 -1.37824,2.891679 -0.53533,0.360468 -0.9086,5.66676 -1.06123,15.085975 -0.17469,10.779463 -0.4664,14.450286 -1.13015,14.221396 -0.63643,-0.21946 -0.95394,-4.392859 -1.0999,-14.457144 -0.20322,-14.0128 -0.22312,-14.163235 -2.07194,-15.671024 -1.02671,-0.837321 -1.86674,-1.784578 -1.86674,-2.105014 0,-0.320436 -0.59333,-1.032584 -1.31851,-1.58255 -0.95575,-0.724832 -1.29798,-2.013072 -1.24387,-4.68239 l 0.0747,-3.682451 -5.51501,0.483341 c -5.492342,0.481349 -8.572792,1.989067 -8.572792,4.195905 0,0.548967 -0.33259,0.998123 -0.73908,0.998123 -0.40649,0 -0.95182,0.878794 -1.21183,1.952877 -0.26001,1.074082 -0.73828,1.952877 -1.06282,1.952877 -0.32455,0 -0.82324,0.963153 -1.10821,2.14034 -0.28497,1.177187 -0.856,2.356839 -1.26896,2.621448 -0.41295,0.26461 -0.93928,1.937841 -1.16961,3.718292 -0.23034,1.78045 -0.7132,3.237182 -1.07302,3.237182 -0.35983,0 -0.65423,0.484236 -0.65423,1.076079 0,0.591843 -0.50857,1.513679 -1.13015,2.048525 -0.62158,0.534845 -1.14165,1.544561 -1.15571,2.243812 -0.0141,0.699252 -0.68065,2.677438 -1.4813,4.39597 -0.800659,1.718532 -1.467242,3.744529 -1.481303,4.502217 -0.01406,0.757685 -0.342801,1.987998 -0.730536,2.734028 -2.288131,4.402527 -3.19431,7.362437 -3.591719,11.731827 -0.245486,2.69904 -0.735335,5.09254 -1.088554,5.31887 -0.869036,0.55685 -0.822605,16.515686 0.04968,17.074616 0.380542,0.24384 2.1276,3.516124 3.882351,7.271754 3.942201,8.43733 4.850161,9.55556 7.785811,9.58893 1.28253,0.0146 3.68805,0.70568 5.3456,1.5358 1.65756,0.83011 4.26515,1.52122 5.794642,1.53579 1.5295,0.0146 3.00931,0.40965 3.28846,0.87795 0.56461,0.94717 10.70722,0.21407 12.01302,-0.86828 z m 3.41426,-83.371013 c 0.40697,-1.181491 1.57467,-2.957038 1.86493,-4.221567 0.64951,-2.829595 0.58018,-4.616827 0.67511,-5.863149 0.11999,-1.575366 1.13589,-2.271791 0.73499,-3.808496 -0.42314,-1.621954 0.0728,-2.06352 -1.2269,-4.474432 -0.51799,-0.960845 -1.00709,-1.873269 -1.08688,-2.027609 -0.41127,-0.795439 -4.75223,2.013573 -4.75223,3.075143 0,0.682782 -0.25428,1.503273 -0.56507,1.823314 -0.31079,0.32004 -0.92661,3.033551 -1.36848,6.030024 -0.79179,5.369301 -0.77177,5.492749 1.38368,8.531535 2.58829,3.648995 3.34958,3.813017 4.34085,0.935237 z"
       id="path24"
       sodipodi:nodetypes="cssssssssssssssssccsssssssssssssssssssssssscccssssssscssssscssssssssssccssssssssssscsssssssssssccssssscsssss" />
  </g>
</svg>
