<?xml version="1.0" encoding="UTF-8" standalone="no"?>
<svg
   xmlns:dc="http://purl.org/dc/elements/1.1/"
   xmlns:cc="http://creativecommons.org/ns#"
   xmlns:rdf="http://www.w3.org/1999/02/22-rdf-syntax-ns#"
   xmlns:svg="http://www.w3.org/2000/svg"
   xmlns="http://www.w3.org/2000/svg"
   xmlns:sodipodi="http://sodipodi.sourceforge.net/DTD/sodipodi-0.dtd"
   xmlns:inkscape="http://www.inkscape.org/namespaces/inkscape"
   width="210mm"
   height="297mm"
   viewBox="0 0 210 297"
   version="1.1"
   id="svg8"
   inkscape:version="1.0.2 (e86c870879, 2021-01-15, custom)"
   sodipodi:docname="slot_machine.svg">
  <defs
     id="defs2" />
  <sodipodi:namedview
     id="base"
     pagecolor="#ffffff"
     bordercolor="#666666"
     borderopacity="1.0"
     inkscape:pageopacity="0.0"
     inkscape:pageshadow="2"
     inkscape:zoom="1.4"
     inkscape:cx="349.51069"
     inkscape:cy="214.08046"
     inkscape:document-units="mm"
     inkscape:current-layer="layer1"
     inkscape:document-rotation="0"
     showgrid="false"
     inkscape:window-width="1320"
     inkscape:window-height="768"
     inkscape:window-x="26"
     inkscape:window-y="394"
     inkscape:window-maximized="0" />
  <metadata
     id="metadata5">
    <rdf:RDF>
      <cc:Work
         rdf:about="">
        <dc:format>image/svg+xml</dc:format>
        <dc:type
           rdf:resource="http://purl.org/dc/dcmitype/StillImage" />
        <dc:title></dc:title>
      </cc:Work>
    </rdf:RDF>
  </metadata>
  <g
     inkscape:label="Layer 1"
     inkscape:groupmode="layer"
     id="layer1">
    <path
       style="fill:#000000;stroke-width:0.264583"
       d="m 74.023338,102.00295 c -1.75401,-0.33163 -2.68032,-0.87552 -2.24038,-1.31546 0.17639,-0.17639 0.37857,-0.17416 0.60653,0.007 0.36096,0.28634 4.6481,1.01814 4.84006,0.82619 0.0617,-0.0617 -0.0589,-0.44181 -0.2679,-0.84471 -0.20903,-0.40291 -0.46022,-1.349968 -0.5582,-2.104588 -0.098,-0.75462 -0.28617,-1.44262 -0.41821,-1.52889 -0.13204,-0.0863 -0.30223,-1.2769 -0.3782,-2.64583 -0.076,-1.36894 -0.23908,-2.7271 -0.36246,-3.01814 -0.12339,-0.29104 -0.28448,-3.66206 -0.35799,-7.49115 -0.086,-4.48078 -0.23735,-7.08692 -0.4246,-7.31254 -0.44887,-0.54086 -0.72551,-25.05776 -0.30174,-26.74073 0.18399,-0.73067 0.77142,-1.84575 1.36529,-2.59161 0.57329,-0.72003 1.04308,-1.44241 1.04398,-1.60531 7.9e-4,-0.16289 0.18829,-0.65335 0.41643,-1.08991 0.22814,-0.43657 0.4819,-1.38907 0.5639,-2.11667 0.082,-0.7276 0.23557,-1.44198 0.34127,-1.5875 0.10569,-0.14552 0.26815,-1.12125 0.36101,-2.1683 l 0.16884,-1.90371 -1.25727,-0.0807 c -1.63586,-0.10495 -1.62459,-0.58637 0.0162,-0.69115 l 1.27345,-0.0813 -0.18575,-2.77289 c -0.17041,-2.54387 -0.14226,-2.82125 0.34076,-3.35826 0.28959,-0.32195 0.58864,-0.76396 0.66458,-0.98224 0.0759,-0.21828 0.79262,-0.61933 1.59263,-0.89121 1.26265,-0.42912 2.04383,-0.47821 5.92064,-0.37206 2.67233,0.0732 4.78486,0.25426 5.25981,0.45089 0.52695,0.21815 3.10606,0.37704 7.67292,0.47271 3.783542,0.0793 7.010922,0.24805 7.171942,0.37508 0.16103,0.12704 0.81588,0.34321 1.45521,0.48039 1.881,0.40358 3.5105,0.85249 4.00311,1.10282 0.25269,0.12841 0.80336,0.23346 1.2237,0.23346 1.34228,0 2.45887,0.32698 2.61317,0.76523 0.0824,0.23397 0.29122,0.60399 0.46412,0.82227 0.17289,0.21829 0.58108,1.17079 0.90708,2.11667 0.32599,0.94589 0.71319,1.94411 0.86043,2.21827 0.18703,0.34823 0.17753,0.55422 -0.0315,0.68341 -0.21478,0.13274 -0.22166,0.38894 -0.0244,0.90781 0.15116,0.39758 0.27484,1.06456 0.27484,1.48218 0,0.41761 0.14074,1.09447 0.31275,1.50413 0.39584,0.9427 1.00287,4.21193 1.18227,6.36722 0.0757,0.90951 0.20894,1.65365 0.2961,1.65365 0.0872,0 0.67476,-0.24993 1.30577,-0.5554 1.11764,-0.54104 1.93019,-0.53349 1.93019,0.0179 0,0.15009 -0.18709,0.27288 -0.41577,0.27288 -0.22867,0 -0.59437,0.1786 -0.81265,0.39688 -0.21828,0.21828 -0.67145,0.39687 -1.00704,0.39687 -0.33559,0 -0.72877,0.14883 -0.87374,0.33073 -0.15551,0.19513 -0.31778,3.70221 -0.39579,8.5538 -0.0911,5.66788 -0.2311,8.40783 -0.45045,8.81769 -0.17503,0.32704 -0.38581,2.114 -0.4684,3.97101 -0.13976,3.14267 -0.11547,3.39046 0.35091,3.57974 0.27558,0.11185 1.87028,0.26524 3.54377,0.34086 1.67349,0.0756 3.17062,0.23877 3.32697,0.36255 0.15634,0.12377 1.13861,0.30445 2.18281,0.4015 l 1.89855,0.17645 v -12.10028 c 0,-12.0758 -0.001,-12.1012 -0.57089,-12.56254 -0.44092,-0.35704 -0.80964,-0.41862 -1.61971,-0.27049 -0.57686,0.10549 -1.14844,0.35296 -1.27018,0.54995 -0.16948,0.27423 -0.29416,0.28534 -0.53208,0.0474 -0.5066,-0.50659 -0.071,-1.09823 0.94952,-1.28968 0.86117,-0.16156 0.90723,-0.21153 0.47693,-0.51752 -0.26196,-0.18627 -0.66446,-0.73745 -0.89445,-1.22483 -0.22998,-0.48738 -0.61282,-1.30287 -0.85076,-1.81219 -0.23793,-0.50932 -0.50551,-1.28323 -0.59462,-1.71979 -0.0891,-0.43656 -0.27816,-1.03591 -0.42012,-1.33189 -0.14196,-0.29597 -0.22199,-1.30356 -0.17785,-2.23908 0.0778,-1.64837 0.10479,-1.70661 0.874,-1.88376 0.92243,-0.21245 2.44445,-0.73348 3.10527,-1.06303 0.25268,-0.12601 1.06073,-0.22912 1.79566,-0.22912 1.27541,0 1.41055,0.0723 2.96868,1.5875 0.89784,0.87313 1.81824,1.5875 2.04533,1.5875 0.74794,0 3.18494,2.38928 3.74419,3.67086 0.29375,0.67316 0.71852,1.60279 0.94393,2.06583 0.4222,0.86728 0.41184,4.07515 -0.0145,4.50152 -0.1124,0.11239 -1.11094,0.25013 -2.21899,0.30609 -2.12459,0.10728 -4.60812,-0.30932 -5.4831,-0.91977 -0.67408,-0.47029 -2.24479,-0.51142 -1.77998,-0.0466 0.23811,0.23812 0.3175,3.48961 0.3175,13.00449 v 12.68699 l -2.56165,-0.16827 c -1.4089,-0.0925 -2.62929,-0.27519 -2.71198,-0.40588 -0.0827,-0.13069 -1.40049,-0.2983 -2.92846,-0.37246 -1.52797,-0.0742 -3.04601,-0.22102 -3.37344,-0.32634 l -0.59531,-0.19149 v 3.6821 c 0,2.02516 -0.10952,3.79522 -0.24338,3.93347 -0.13386,0.13824 -0.32896,2.54648 -0.43355,5.35163 -0.10459,2.80516 -0.29273,5.16367 -0.41808,5.24114 -0.12535,0.0775 -0.22791,1.9793 -0.22791,4.22628 v 4.085428 l -9.32657,0.015 c -5.12961,0.008 -14.624842,0.0567 -21.100522,0.10757 -8.16916,0.0642 -12.26949,-10e-4 -13.39246,-0.21343 z m 33.302362,-0.67931 9.72344,-0.0236 v -3.820848 c 0,-2.26182 0.10796,-3.88756 0.26458,-3.98436 0.14552,-0.0899 0.2772,-1.25783 0.29262,-2.59531 0.0154,-1.33748 0.13932,-3.68193 0.27533,-5.2099 0.13601,-1.52797 0.33785,-6.17141 0.44855,-10.31875 0.1468,-5.50013 0.29766,-7.71677 0.5575,-8.19157 0.26801,-0.48971 0.38876,-2.67822 0.48749,-8.83562 l 0.13124,-8.18469 -0.70572,0.17713 c -0.38814,0.0974 -6.82526,0.17454 -14.3047,0.17138 l -13.598972,-0.006 -0.17723,0.8069 c -0.21303,0.96994 -0.81132,0.88115 -0.74067,-0.10991 0.0486,-0.68165 0.0118,-0.69871 -1.50574,-0.69871 -0.85555,0 -1.61959,-0.10362 -1.69786,-0.23027 -0.0783,-0.12664 -1.07719,-0.28438 -2.21983,-0.35053 -1.34976,-0.0781 -2.29918,-0.27552 -2.7103,-0.56348 -0.34803,-0.24377 -0.89402,-0.44322 -1.21332,-0.44322 -0.3193,0 -0.62023,-0.1158 -0.66874,-0.25732 -0.0485,-0.14153 -0.94353,-0.33649 -1.98895,-0.43325 -3.40844,-0.31547 -3.39228,-0.39403 -3.17489,15.43628 0.113,8.22842 0.26423,12.42032 0.45644,12.65192 0.18222,0.21956 0.33703,2.84738 0.42287,7.17801 0.0745,3.75741 0.23706,7.06978 0.36128,7.36082 0.12423,0.29104 0.27882,1.63001 0.34354,2.9755 0.0647,1.34548 0.23702,2.59564 0.38289,2.77812 0.14586,0.18249 0.34777,1.01453 0.44867,1.84898 0.1009,0.83445 0.29418,1.585618 0.42952,1.669258 0.13533,0.0836 0.24607,0.44226 0.24607,0.79694 v 0.64485 l 9.85572,-0.10773 c 5.42066,-0.0592 14.231282,-0.11834 19.579172,-0.1313 z m 32.42469,-50.082738 c 0.37181,-0.37182 0.4305,-2.75643 0.0733,-2.97721 -0.13432,-0.083 -0.32264,-0.50796 -0.41848,-0.94432 -0.37075,-1.68804 -1.90106,-3.96306 -2.66577,-3.96306 -0.17549,0 -0.3876,-0.17859 -0.47137,-0.39687 -0.0838,-0.21828 -0.38444,-0.39688 -0.66817,-0.39688 -0.28374,0 -1.01156,-0.47625 -1.6174,-1.05833 -0.60583,-0.58208 -1.19697,-1.05833 -1.31364,-1.05833 -0.11668,0 -0.27441,-0.23813 -0.35052,-0.52917 -0.11526,-0.44077 -0.36089,-0.52917 -1.47045,-0.52917 -0.73264,0 -1.40566,0.11907 -1.49559,0.26459 -0.0899,0.14552 -0.42314,0.26458 -0.74044,0.26458 -0.31731,0 -1.08374,0.20836 -1.70319,0.46302 -1.09916,0.45188 -1.12629,0.49289 -1.12726,1.70418 -5.3e-4,0.68263 0.10201,1.30481 0.22789,1.38261 0.12588,0.0778 0.29124,0.6064 0.36746,1.17467 0.0762,0.56827 0.53158,1.86187 1.0119,2.87467 1.02241,2.15585 1.79341,2.7196 3.71938,2.7196 0.72417,0 1.81516,0.22531 2.42596,0.50101 1.51292,0.6829 1.88489,0.75586 4.03361,0.79122 1.13728,0.0187 1.98923,-0.0932 2.18281,-0.28681 z m -49.477082,-1.85209 c 0.22877,-0.22877 0.3175,-2.04023 0.3175,-6.48229 v -6.16479 h -5.65258 -5.65258 l -0.16826,1.22755 c -0.0925,0.67516 -0.16825,1.62063 -0.16825,2.10106 0,0.48042 -0.10342,0.93741 -0.22982,1.01553 -0.1264,0.0781 -0.31144,0.97034 -0.41119,1.98271 -0.0998,1.01238 -0.26957,1.87822 -0.37736,1.9241 -0.10778,0.0459 -0.44858,0.57402 -0.75732,1.17363 l -0.56134,1.09021 1.71609,0.17582 c 0.94385,0.0967 1.91617,0.2732 2.1607,0.39222 0.24454,0.11902 0.8926,0.43206 1.44013,0.69566 0.54754,0.26359 1.87964,0.55158 2.96024,0.63996 1.0806,0.0884 2.05144,0.24743 2.15743,0.35342 0.31703,0.31703 2.88407,0.21775 3.22661,-0.12479 z m -6.79786,-1.84037 c -1.11509,-0.32058 -3.73256,-2.54227 -3.73256,-3.16816 0,-0.25444 0.46519,-1.0001 1.03375,-1.65702 0.56856,-0.65693 1.17341,-1.61758 1.34411,-2.13479 0.17069,-0.51721 0.53894,-1.06272 0.81833,-1.21225 0.27939,-0.14952 0.50798,-0.44921 0.50798,-0.66597 0,-0.48022 1.05115,-0.91019 2.22517,-0.91019 0.98257,0 1.58285,0.55003 1.8575,1.70196 0.10174,0.42675 0.41539,1.25279 0.69699,1.83563 0.66284,1.37191 0.64757,2.77064 -0.0529,4.84428 l -0.56487,1.6723 -1.61794,-0.0239 c -0.88987,-0.0131 -2.02189,-0.14 -2.51559,-0.28194 z m 4.0065,-1.90184 c 0.51211,-1.55954 0.60724,-3.22826 0.19844,-3.48091 -0.15006,-0.0927 -0.26458,0.12954 -0.26458,0.51355 0,0.62529 -0.0904,0.67707 -1.18142,0.67707 -0.94417,0 -1.36924,-0.1649 -2.11667,-0.82115 -0.51439,-0.45164 -0.93991,-1.07672 -0.9456,-1.38907 -0.008,-0.44029 -0.0979,-0.36629 -0.39979,0.3293 -0.21419,0.49345 -0.81401,1.36715 -1.33294,1.94154 l -0.94351,1.04436 1.11879,0.96887 c 1.28388,1.11183 2.51533,1.5818 4.21364,1.60807 l 1.19062,0.0184 0.46302,-1.41005 z m -0.91445,-5.00227 -0.0777,-1.91822 -0.82671,-0.0804 c -1.10228,-0.10724 -1.68683,0.51649 -1.68683,1.79992 0,1.16044 0.91799,2.11697 2.03165,2.11697 0.62197,0 0.63549,-0.0463 0.55963,-1.91823 z m 20.238562,8.33438 c -0.0635,-0.40018 -0.21941,-0.96573 -0.34637,-1.25677 -0.30538,-0.70005 -0.4789,-2.41897 -0.68367,-6.7725 l -0.16921,-3.59751 -6.118942,-0.16638 c -3.36541,-0.0915 -6.56542,-0.24438 -7.11113,-0.33971 l -0.99218,-0.17335 v 6.51691 6.51691 h 7.76852 7.768512 z m -10.050252,-1.1134 c -0.89852,-0.54787 -1.20725,-1.33055 -1.53573,-3.8934 -0.21838,-1.70385 0.36604,-3.0953 1.55796,-3.70936 0.45333,-0.23354 0.9798,-0.64501 1.16996,-0.91439 0.41844,-0.59277 0.93047,-0.62738 1.37406,-0.0929 0.1902,0.22919 0.767322,0.39688 1.365852,0.39688 1.2059,0 3.13206,0.8943 3.13206,1.45419 0,0.2118 -0.23768,0.77493 -0.52817,1.25139 -0.38561,0.63245 -0.52845,1.33438 -0.52917,2.60033 -7.9e-4,1.61354 -0.0616,1.79279 -0.87348,2.57968 -0.79851,0.77395 -1.01727,0.84557 -2.579692,0.84467 -1.22579,-8e-4 -1.94588,-0.14653 -2.55365,-0.5171 z m 4.487182,-0.94783 c 0.6374,-0.59103 0.72603,-0.87047 0.73428,-2.3151 0.005,-0.9222 0.17525,-1.93312 0.38749,-2.3044 0.55107,-0.96399 0.48746,-1.2212 -0.39212,-1.58553 -0.97213,-0.40267 -1.52408,-0.21728 -1.63788,0.55014 -0.0477,0.32146 -0.28874,0.71112 -0.535722,0.86592 -0.66242,0.41516 -1.91161,-0.0945 -2.01602,-0.82255 -0.079,-0.55105 -0.11954,-0.5611 -0.70781,-0.17566 -0.9132,0.59836 -1.20807,1.69676 -0.92402,3.44203 0.43759,2.68865 0.7209,2.96807 3.04128,2.99941 1.067902,0.0144 1.466552,-0.11277 2.050522,-0.65426 z m -1.920932,-6.04231 c 0,-0.34598 -0.1786,-0.77728 -0.39688,-0.95844 -0.33755,-0.28014 -0.39687,-0.21248 -0.39687,0.45267 0,0.43013 0.0794,0.86143 0.17639,0.95844 0.35427,0.35428 0.61736,0.16138 0.61736,-0.45267 z m 19.302432,8.66159 0.84775,-0.16955 -0.13032,-1.61638 c -0.18324,-2.27271 -0.68539,-5.23714 -0.97774,-5.77202 -0.13572,-0.24831 -0.31447,-0.96268 -0.39723,-1.5875 -0.0828,-0.62482 -0.28265,-1.58252 -0.4442,-2.12823 l -0.29372,-0.99218 h -5.41613 -5.41612 l 0.17483,3.50573 c 0.22867,4.58536 0.41824,6.35973 0.71234,6.6675 0.1321,0.13824 0.24019,0.54183 0.24019,0.89687 0,1.21185 0.56009,1.34783 5.58932,1.3569 2.56481,0.005 5.04477,-0.0679 5.51103,-0.16114 z m -7.39272,-1.3483 c -1.01679,-0.18988 -2.07965,-1.06972 -2.65529,-2.19805 -0.55658,-1.091 -0.69202,-2.49851 -0.26578,-2.76194 0.14157,-0.0875 0.38491,-0.63263 0.54075,-1.21141 0.1987,-0.73789 0.55563,-1.22866 1.19454,-1.64247 0.50115,-0.32458 0.91266,-0.72529 0.91446,-0.89045 0.005,-0.4775 1.23439,-1.15491 2.09563,-1.15491 0.77055,0 1.61181,0.774 1.61181,1.48295 0,0.16878 0.47625,0.78313 1.05833,1.36521 1.21821,1.21821 1.33824,2.003 0.47957,3.13543 -3.1378,4.13818 -3.221,4.203 -4.97402,3.87564 z m 2.84698,-2.64933 c 2.06209,-2.72567 2.02227,-2.63665 1.52129,-3.40126 -0.53216,-0.81216 -1.25109,-0.73265 -1.46017,0.1615 -0.12624,0.5399 -0.3378,0.6753 -1.16203,0.74373 -1.25712,0.10438 -2.01087,-0.50907 -2.02248,-1.64602 l -0.008,-0.81889 -0.6531,0.74236 c -0.3592,0.40829 -0.65309,0.95926 -0.65309,1.22437 0,0.26511 -0.1786,0.63024 -0.39688,0.81139 -0.53232,0.44179 -0.49982,1.14222 0.10831,2.33425 0.57335,1.12384 1.32702,1.59501 2.98865,1.8684 0.10261,0.0169 0.88464,-0.89205 1.73786,-2.01983 z m -0.73378,-3.98198 c 0,-0.40746 0.13089,-0.87173 0.29087,-1.0317 0.38219,-0.38219 0.0487,-1.40247 -0.45838,-1.40247 -0.972,0 -1.41999,0.53159 -1.41999,1.685 0,1.30677 0.11931,1.49 0.97014,1.49 0.49977,0 0.61736,-0.14111 0.61736,-0.74083 z m 3.96875,-5.45563 c 0,-0.63675 -1.06547,-3.16522 -1.61688,-3.83702 -0.40776,-0.49679 -0.85109,-0.66774 -1.97295,-0.76078 -0.79586,-0.066 -1.51138,-0.22413 -1.59004,-0.35141 -0.0787,-0.12728 -0.41911,-0.23141 -0.75655,-0.23141 -0.33745,0 -1.04097,-0.1786 -1.56339,-0.39688 -0.52242,-0.21828 -1.20358,-0.39687 -1.51368,-0.39687 -0.31011,0 -0.93901,-0.16796 -1.39756,-0.37324 -0.61463,-0.27516 -2.60684,-0.41158 -7.580612,-0.5191 -4.99258,-0.10794 -7.08459,-0.25168 -8.0457,-0.55281 -0.9269,-0.29041 -2.43566,-0.40694 -5.26891,-0.40694 -4.40335,0 -5.37284,0.24317 -6.49087,1.62804 -0.59475,0.7367 -0.61457,0.89222 -0.43448,3.4084 l 0.1887,2.63648 6.5199,0.028 c 3.58594,0.0154 7.59146,0.11464 8.90115,0.22051 1.30969,0.10588 6.935392,0.2113 12.501562,0.23427 8.526,0.0352 10.12031,-0.0167 10.12031,-0.32926 z"
       id="path24" />
    <text
       xml:space="preserve"
       style="font-style:normal;font-variant:normal;font-weight:normal;font-stretch:normal;font-size:5.64444px;line-height:1.25;font-family:'Comic Sans MS';-inkscape-font-specification:'Comic Sans MS';fill:#000000;fill-opacity:1;stroke:none;stroke-width:0.264583"
       x="87.463951"
       y="34.076862"
       id="text28"><tspan
         sodipodi:role="line"
         id="tspan26"
         x="87.463951"
         y="34.076862"
         style="font-style:normal;font-variant:normal;font-weight:normal;font-stretch:normal;font-size:5.64444px;font-family:'Comic Sans MS';-inkscape-font-specification:'Comic Sans MS';stroke-width:0.264583">jackpot</tspan></text>
  </g>
</svg>
