<?xml version="1.0" encoding="UTF-8" standalone="no"?>
<svg
   xmlns:dc="http://purl.org/dc/elements/1.1/"
   xmlns:cc="http://creativecommons.org/ns#"
   xmlns:rdf="http://www.w3.org/1999/02/22-rdf-syntax-ns#"
   xmlns:svg="http://www.w3.org/2000/svg"
   xmlns="http://www.w3.org/2000/svg"
   xmlns:sodipodi="http://sodipodi.sourceforge.net/DTD/sodipodi-0.dtd"
   xmlns:inkscape="http://www.inkscape.org/namespaces/inkscape"
   width="210mm"
   height="297mm"
   viewBox="0 0 210 297"
   version="1.1"
   id="svg8"
   inkscape:version="1.0.2 (e86c870879, 2021-01-15, custom)"
   sodipodi:docname="store.svg">
  <defs
     id="defs2" />
  <sodipodi:namedview
     id="base"
     pagecolor="#ffffff"
     bordercolor="#666666"
     borderopacity="1.0"
     inkscape:pageopacity="0.0"
     inkscape:pageshadow="2"
     inkscape:zoom="0.49497475"
     inkscape:cx="178.33495"
     inkscape:cy="545.78264"
     inkscape:document-units="mm"
     inkscape:current-layer="layer1"
     inkscape:document-rotation="0"
     showgrid="false"
     inkscape:window-width="1320"
     inkscape:window-height="768"
     inkscape:window-x="30"
     inkscape:window-y="394"
     inkscape:window-maximized="0" />
  <metadata
     id="metadata5">
    <rdf:RDF>
      <cc:Work
         rdf:about="">
        <dc:format>image/svg+xml</dc:format>
        <dc:type
           rdf:resource="http://purl.org/dc/dcmitype/StillImage" />
        <dc:title></dc:title>
      </cc:Work>
    </rdf:RDF>
  </metadata>
  <g
     inkscape:label="Layer 1"
     inkscape:groupmode="layer"
     id="layer1">
    <path
       style="fill:#000000;stroke-width:0.264583"
       d="m 63.027533,147.63388 c -0.800365,-0.17471 -1.599835,-0.41139 -1.776603,-0.52594 -0.706774,-0.45803 -2.959944,-0.99485 -4.83798,-1.15265 -1.091407,-0.0917 -2.141093,-0.29062 -2.332639,-0.44204 -0.216251,-0.17094 -4.278029,-0.35977 -10.715625,-0.49814 -12.544191,-0.26963 -17.625609,-0.52035 -17.711452,-0.87389 -0.03533,-0.14552 0.309149,-0.30088 0.765517,-0.34524 l 0.82976,-0.0807 0.193998,-8.27768 c 0.106698,-4.55272 0.119021,-9.57658 0.02738,-11.16413 -0.661677,-11.46306 -0.357074,-36.640986 0.455413,-37.643611 0.187568,-0.231463 0.329013,-2.51367 0.393557,-6.350001 0.05541,-3.293772 0.208005,-6.101786 0.339088,-6.240031 0.131082,-0.138245 0.238331,-0.696765 0.238331,-1.241156 0,-0.544391 0.09633,-1.049335 0.214062,-1.122099 0.117734,-0.07276 1.754843,-0.204471 3.638021,-0.292682 3.449664,-0.161589 4.075353,-0.262192 6.731251,-1.082299 1.35264,-0.417678 5.632344,-0.446058 60.718698,-0.402641 34.67302,0.02733 59.36225,0.145461 59.50149,0.284705 0.14094,0.140939 0.10874,0.703311 -0.079,1.379011 -0.17433,0.627558 -0.43565,1.617265 -0.58072,2.199348 -0.14506,0.582084 -0.37599,1.171443 -0.51317,1.309688 -0.13717,0.138245 -0.24941,0.412668 -0.24941,0.609829 0,0.197161 -0.24462,0.917489 -0.54361,1.600729 -0.29899,0.68324 -0.64767,1.48038 -0.77486,1.771421 -1.02387,2.342985 -1.42858,5.908128 -1.83944,16.203836 -0.11755,2.945757 -0.33257,5.505603 -0.47781,5.688543 -0.14524,0.18294 -0.34827,1.10535 -0.45117,2.04979 -0.1029,0.94445 -0.30232,1.85601 -0.44315,2.02571 -0.14083,0.16969 -0.3195,1.77821 -0.39704,3.57449 -0.0775,1.79628 -0.2629,3.51882 -0.4119,3.82786 -0.40176,0.83329 -0.18323,11.80666 0.24541,12.32282 0.18171,0.21881 0.40652,0.98114 0.49957,1.69406 0.0931,0.71293 0.26388,1.41794 0.37962,1.56671 0.2634,0.33857 0.32966,7.0899 0.11355,11.56962 l -0.16274,3.37344 h -0.72097 c -0.39653,0 -1.37199,-0.18104 -2.16769,-0.40231 -0.7957,-0.22127 -2.90524,-0.47672 -4.68787,-0.56766 l -3.24115,-0.16535 v 0.98658 c 0,1.24121 -0.62307,1.16102 -0.7463,-0.096 -0.0745,-0.76001 -0.15512,-0.84159 -0.66146,-0.6694 -0.31714,0.10785 -4.68427,0.24921 -9.70474,0.31412 -5.02046,0.0649 -9.24718,0.21477 -9.3927,0.33301 -0.14553,0.11825 -1.09803,0.3007 -2.11667,0.40545 -1.01865,0.10475 -1.97115,0.28268 -2.11667,0.39541 -0.14552,0.11272 -1.81239,0.29188 -3.70416,0.39813 -1.89178,0.10624 -3.49912,0.27287 -3.57188,0.37027 -0.26072,0.34905 -7.09937,1.31065 -9.45885,1.33004 -0.90951,0.007 -1.65365,0.114 -1.65365,0.23674 0,0.12274 -1.830812,0.29871 -4.068467,0.39104 -2.237653,0.0923 -4.394507,0.29184 -4.793007,0.44335 -0.398502,0.15151 -1.812147,0.34901 -3.141435,0.43889 -1.329288,0.0899 -2.542969,0.2619 -2.697067,0.38226 -0.484518,0.37847 -20.677868,0.52195 -22.341695,0.15875 z m 17.4625,-0.72705 c 5.24038,-0.2455 9.553546,-0.67043 10.691781,-1.05336 0.423447,-0.14245 2.481805,-0.33679 4.574128,-0.43186 2.092319,-0.0951 3.866247,-0.27322 3.942061,-0.39589 0.07581,-0.12267 0.934487,-0.22827 1.908167,-0.23466 2.26677,-0.0149 9.17866,-1.01136 9.17866,-1.32329 0,-0.0345 1.66687,-0.21675 3.70416,-0.40499 2.03729,-0.18824 4.5148,-0.48981 5.50558,-0.67014 l 1.80142,-0.32789 -0.17769,-1.07843 c -0.0977,-0.59314 -0.28748,-1.21475 -0.42167,-1.38136 -0.13557,-0.16831 -0.27997,-4.61779 -0.32495,-10.01259 -0.0522,-6.25913 -0.17742,-9.77144 -0.35241,-9.88353 -0.14929,-0.0956 -0.35613,-0.97629 -0.45964,-1.95702 -0.10351,-0.98074 -0.28401,-1.84236 -0.4011,-1.91473 -0.11709,-0.0724 -0.29843,-0.81777 -0.40297,-1.65643 -0.10454,-0.83867 -0.32118,-1.60633 -0.48143,-1.70591 -0.30811,-0.19146 -0.35175,-10.04925 -0.0467,-10.54288 0.20021,-0.32395 4.02537,-0.29968 5.94799,0.0378 0.80037,0.14047 3.41974,0.37245 5.82083,0.51553 2.4011,0.14307 4.58721,0.38591 4.85803,0.53963 0.5214,0.29596 2.1257,0.63634 4.89664,1.0389 0.92667,0.13463 1.81964,0.35428 1.98437,0.48812 0.27105,0.22021 2.43281,0.62275 5.37453,1.00077 1.79059,0.2301 1.94075,0.57169 2.12284,4.82923 0.15536,3.63272 -0.15725,6.42686 -0.76079,6.79987 -0.12065,0.0746 -0.21937,0.33867 -0.21937,0.5869 0,0.24823 -0.23812,0.89561 -0.52916,1.43863 -0.29104,0.54302 -0.52917,1.21622 -0.52917,1.496 0,0.27977 -0.19874,0.90528 -0.44164,1.39002 -0.2429,0.48473 -0.54841,1.10064 -0.67889,1.36868 -0.13049,0.26804 -0.30651,1.3396 -0.39117,2.38125 -0.0951,1.16991 -0.29069,1.97479 -0.51173,2.10549 -0.21426,0.1267 -0.35782,0.67773 -0.35782,1.37345 0,0.63902 -0.11218,1.23119 -0.24929,1.31593 -0.13712,0.0847 -0.32181,0.71685 -0.41044,1.40468 -0.0886,0.68784 -0.25951,1.43399 -0.37974,1.65812 -0.12023,0.22414 -0.30444,1.14709 -0.40935,2.051 -0.10491,0.90391 -0.29809,1.70982 -0.4293,1.79091 -0.1312,0.0811 -0.23855,0.89592 -0.23855,1.81074 v 1.6633 l 3.37344,0.16146 c 1.95015,0.0933 3.86191,0.33384 4.53118,0.57004 2.13448,0.75328 2.08337,0.8168 2.27879,-2.83257 0.22019,-4.11195 0.15302,-10.30317 -0.11554,-10.64948 -0.11285,-0.14552 -0.28131,-0.84788 -0.37437,-1.5608 -0.0931,-0.71293 -0.31786,-1.47519 -0.49957,-1.69392 -0.69398,-0.83535 -0.17536,-18.72023 0.58398,-20.13909 0.14581,-0.27243 0.34344,-1.19246 0.43919,-2.04451 0.0958,-0.85205 0.29676,-1.78689 0.44667,-2.07742 0.14992,-0.29053 0.36675,-2.90991 0.48186,-5.820835 0.29892,-7.559844 0.69055,-12.21566 1.16849,-13.891549 0.36897,-1.29379 1.30223,-3.746494 2.39445,-6.29283 0.20497,-0.47788 0.37268,-1.088418 0.37268,-1.356751 0,-0.268333 0.18557,-0.932006 0.41238,-1.47483 0.2268,-0.542823 0.36988,-1.029448 0.31794,-1.081389 -0.0519,-0.05194 -26.72318,-0.117942 -59.269424,-0.14667 -41.672823,-0.03678 -59.276571,0.03141 -59.518458,0.230566 -0.188913,0.155539 -0.910487,0.36721 -1.603502,0.470381 -0.693013,0.10317 -1.325118,0.292907 -1.404676,0.421636 -0.07956,0.128729 -1.358019,0.235364 -2.841018,0.236966 -1.483001,0.0016 -3.142849,0.07671 -3.688552,0.16691 -0.947314,0.156581 -0.992188,0.210298 -0.992188,1.187713 0,0.563043 -0.104074,1.023715 -0.231276,1.023715 -0.127202,0 -0.282586,2.806363 -0.345298,6.236363 -0.07381,4.036871 -0.214269,6.29977 -0.39826,6.416147 -0.596707,0.377423 -0.960418,12.322075 -0.726528,23.859987 0.122421,6.03912 0.198371,15.88338 0.168778,21.87613 l -0.05381,10.89592 2.579133,0.14975 c 1.418524,0.0824 7.304536,0.24846 13.080031,0.3691 6.509128,0.13597 10.63281,0.32361 10.847917,0.49362 0.190859,0.15085 1.162722,0.34675 2.15969,0.43534 1.751817,0.15565 3.020714,0.46057 4.405038,1.05854 2.140265,0.92451 9.063077,1.17268 19.314583,0.69242 z m -6.17361,-11.27637 c -0.313338,-0.31334 -0.204208,-21.83183 0.11585,-22.84411 0.160735,-0.50836 0.428625,-1.75773 0.595313,-2.77638 l 0.303072,-1.85208 7.011459,-0.0639 c 3.856302,-0.0352 10.166614,0.0244 14.022917,0.13229 l 7.011456,0.19621 0.20886,3.83646 c 0.22168,4.07188 -0.26165,16.3238 -0.65351,16.56599 -0.11925,0.0737 -0.21681,0.9604 -0.21681,1.97046 v 1.83647 H 88.824408 74.933783 v 1.5875 c 0,1.46702 -0.170876,1.8576 -0.61736,1.41111 z m 27.701297,-5.31372 c 0.77401,-8.20922 0.95803,-11.95529 0.80375,-16.36247 l -0.16757,-4.78694 -6.914746,-0.17345 c -3.803111,-0.0954 -9.793444,-0.17369 -13.311852,-0.17399 l -6.397109,-5.4e-4 -0.183978,1.52135 c -0.101188,0.83675 -0.318114,1.68831 -0.482058,1.89236 -0.205393,0.25563 -0.322482,3.36145 -0.376547,9.98802 l -0.07847,9.61702 h 13.482571 13.482569 z m -55.317805,1.5877 -7.19949,-0.0748 -0.426931,-0.98795 c -0.234815,-0.54338 -0.789805,-1.70233 -1.233316,-2.57546 l -0.806381,-1.5875 -0.26148,-6.61458 c -0.153561,-3.8846 -0.167537,-7.70658 -0.03386,-9.26042 l 0.227618,-2.64583 9.789584,-0.21149 c 5.384271,-0.11631 12.637661,-0.15115 16.118647,-0.0774 5.538481,0.11733 6.366872,0.0824 6.631744,-0.27986 0.263901,-0.36091 0.363371,-0.3213 0.776446,0.30913 0.352412,0.53785 0.392602,0.77323 0.156893,0.9189 -0.22306,0.13786 -0.238876,0.34343 -0.05342,0.69432 0.798383,1.5106 1.188328,13.59004 0.482383,14.94289 -0.196905,0.37734 -0.438065,1.11282 -0.535913,1.63439 -0.09785,0.52157 -0.306705,0.99125 -0.46413,1.04372 -0.16342,0.0545 -0.34585,1.14117 -0.425199,2.5328 l -0.138972,2.43739 -7.702365,-0.0617 c -4.236299,-0.0339 -10.942132,-0.0954 -14.901855,-0.13653 z m 21.96636,-2.87818 c 0.105381,-1.49325 0.301974,-2.43834 0.568465,-2.73281 0.224057,-0.24758 0.407376,-0.68485 0.407376,-0.97171 0,-0.28685 0.148829,-0.6702 0.33073,-0.85188 0.776859,-0.77591 0.444857,-12.79534 -0.41129,-14.8898 -0.2823,-0.69061 -0.305086,-0.69554 -4.077854,-0.88241 -2.086681,-0.10335 -9.198139,-0.10107 -15.803239,0.005 l -12.009271,0.19299 -0.17988,2.40921 c -0.227851,3.05169 0.206841,14.66984 0.575209,15.3738 0.152295,0.29104 0.464228,0.94588 0.693185,1.45521 0.228954,0.50932 0.616315,1.3706 0.860801,1.91396 l 0.444518,0.98792 7.049484,0.0749 c 3.877215,0.0412 10.276251,0.10266 14.22008,0.13656 l 7.170597,0.0616 z M 87.898367,86.378288 c 0,-0.139819 -0.445371,-0.337767 -0.989711,-0.439889 -1.148832,-0.215521 -2.853447,-1.390307 -3.549902,-2.446519 -0.998082,-1.513652 -0.34998,-4.545039 1.231705,-5.761075 0.378555,-0.291042 1.085056,-0.856589 1.570003,-1.256771 0.484947,-0.400183 1.01483,-0.727604 1.177523,-0.727604 0.162689,0 0.295798,-0.110416 0.295798,-0.245369 0,-0.134953 0.68461,-0.581438 1.521355,-0.992188 l 1.521354,-0.746819 h 7.650387 c 5.884871,0 7.675941,0.07632 7.761111,0.33073 0.0866,0.258819 -1.35317,0.330729 -6.622087,0.330729 -6.4765,0 -9.48422,0.248455 -9.671355,0.798911 -0.04851,0.142682 -0.258032,0.259422 -0.465611,0.259422 -0.207579,0 -0.581305,0.238125 -0.830503,0.529167 -0.249198,0.291042 -0.605219,0.529167 -0.79116,0.529167 -0.185941,0 -0.338074,0.111039 -0.338074,0.246753 0,0.135715 -0.214778,0.314922 -0.477287,0.398239 -0.778034,0.246939 -2.697713,2.242544 -2.697713,2.804414 0,0.285639 -0.119062,0.519344 -0.264583,0.519344 -0.145521,0 -0.264015,0.446484 -0.263319,0.992187 0.0011,0.750168 0.210706,1.219552 0.859896,1.924295 0.862446,0.93625 2.438561,1.846018 3.198106,1.846018 0.224081,0 0.481005,0.119062 0.570942,0.264583 0.182483,0.295265 19.410768,0.375531 21.780698,0.09092 2.36104,-0.283542 3.75159,-2.131349 3.75159,-4.985211 0,-1.32376 -0.11581,-1.772776 -0.60373,-2.3406 -0.33206,-0.386436 -0.84403,-0.702611 -1.13771,-0.702611 -0.29369,0 -0.65152,-0.117551 -0.7952,-0.261224 -0.15972,-0.159727 -4.00963,-0.288229 -9.90864,-0.330729 -6.208892,-0.04473 -9.647425,-0.163808 -9.647425,-0.334089 0,-0.334449 19.654585,-0.502857 20.077305,-0.172029 0.16258,0.127245 0.6132,0.307104 1.00136,0.399686 1.24291,0.296448 1.80779,1.619879 1.80779,4.235344 0,1.346194 -0.10863,2.283874 -0.26458,2.283874 -0.14552,0 -0.26458,0.164237 -0.26458,0.364971 0,0.200735 -0.5049,0.885344 -1.12199,1.521355 l -1.12199,1.156383 -11.974885,0.08522 c -7.540456,0.05366 -11.974888,-0.0089 -11.974888,-0.168992 z m 53.888143,54.862562 c 0.49309,-0.16581 0.59296,-0.44294 0.70404,-1.95371 0.12666,-1.72282 0.508,-3.73187 1.36366,-7.18446 0.23442,-0.94588 0.51689,-2.27569 0.62771,-2.95513 0.11082,-0.67943 0.32731,-1.39381 0.48109,-1.5875 0.15377,-0.19369 0.34302,-1.06654 0.42054,-1.93966 0.0775,-0.87313 0.43281,-2.30188 0.78952,-3.175 0.67694,-1.65694 0.8359,-2.0827 2.0745,-5.55625 0.65426,-1.83482 0.75266,-2.48659 0.73898,-4.89479 -0.009,-1.52797 -0.0947,-3.37344 -0.19105,-4.10104 -0.17459,-1.31785 -0.1793,-1.32325 -1.23024,-1.40878 -0.58023,-0.0472 -1.17555,-0.1808 -1.32291,-0.29684 -0.14737,-0.11604 -1.1601,-0.29582 -2.25052,-0.39952 -1.09042,-0.1037 -2.05408,-0.30423 -2.14146,-0.44562 -0.0874,-0.14139 -0.8621,-0.32605 -1.72159,-0.41036 -0.85949,-0.0843 -1.68177,-0.23978 -1.82729,-0.34548 -0.14552,-0.1057 -0.82752,-0.26552 -1.51557,-0.35516 -0.68804,-0.0896 -1.46195,-0.28328 -1.71979,-0.4303 -0.25784,-0.14701 -2.3738,-0.37987 -4.70214,-0.51745 -2.32833,-0.13759 -4.76911,-0.37194 -5.42396,-0.52078 -0.65484,-0.14885 -2.17289,-0.27581 -3.37343,-0.28215 l -2.18282,-0.0115 -0.0627,2.44739 c -0.0878,3.42601 0.0685,6.89621 0.32476,7.2099 0.11886,0.14552 0.30103,0.95077 0.40483,1.78943 0.10379,0.83867 0.28214,1.5826 0.39634,1.65317 0.11419,0.0706 0.29213,0.87268 0.39542,1.78245 0.10329,0.90976 0.31132,1.80673 0.4623,1.99326 0.17461,0.21575 0.30726,3.8684 0.36456,10.0381 0.0562,6.05868 0.19043,9.79932 0.35749,9.96637 0.14708,0.14709 0.26742,0.53154 0.26742,0.85433 0,1.55824 -0.51844,1.48543 9.62909,1.35223 5.10874,-0.0671 9.54719,-0.20887 9.86322,-0.31513 z"
       id="path24" />
    <text
       xml:space="preserve"
       style="font-style:normal;font-variant:normal;font-weight:normal;font-stretch:normal;font-size:6.97227px;line-height:1.25;font-family:'Comic Sans MS';-inkscape-font-specification:'Comic Sans MS';fill:#000000;fill-opacity:1;stroke:none;stroke-width:0.261459"
       x="33.726425"
       y="80.96579"
       id="text28"
       transform="scale(0.98819449,1.0119465)"><tspan
         sodipodi:role="line"
         x="33.726425"
         y="80.96579"
         style="font-style:normal;font-variant:normal;font-weight:normal;font-stretch:normal;font-size:6.97227px;font-family:'Comic Sans MS';-inkscape-font-specification:'Comic Sans MS';stroke-width:0.261459"
         id="tspan32">Office Supplies</tspan><tspan
         sodipodi:role="line"
         x="33.726425"
         y="89.681129"
         style="font-style:normal;font-variant:normal;font-weight:normal;font-stretch:normal;font-size:6.97227px;font-family:'Comic Sans MS';-inkscape-font-specification:'Comic Sans MS';stroke-width:0.261459"
         id="tspan30" /></text>
  </g>
</svg>
